<?xml version="1.0" encoding="utf-8"?>
<!-- Svg Vector Icons : http://www.onlinewebfonts.com/icon -->
<!DOCTYPE svg PUBLIC "-//W3C//DTD SVG 1.1//EN" "http://www.w3.org/Graphics/SVG/1.1/DTD/svg11.dtd">
<svg version="1.1" xmlns="http://www.w3.org/2000/svg" xmlns:xlink="http://www.w3.org/1999/xlink" x="0px" y="0px" viewBox="0 0 256 256" enable-background="new 0 0 256 256" xml:space="preserve">
<metadata> Svg Vector Icons : http://www.onlinewebfonts.com/icon </metadata>
<g><g><g><path fill="#000000" d="M246,128c0,13.6-11,24.5-24.5,24.5h-68.9v68.9c0,13.6-11,24.5-24.5,24.5c-13.6,0-24.5-11-24.5-24.5v-68.9H34.5C21,152.5,10,141.6,10,128c0-13.6,11-24.5,24.5-24.5h68.9V34.5c0-13.6,11-24.5,24.5-24.5c13.6,0,24.5,11,24.5,24.5v68.9h68.9C235,103.5,246,114.4,246,128z"/></g><g></g><g></g><g></g><g></g><g></g><g></g><g></g><g></g><g></g><g></g><g></g><g></g><g></g><g></g><g></g></g></g>
</svg>